<?xml version="1.0" encoding="UTF-8" standalone="no"?>
<!-- Created with Inkscape (http://www.inkscape.org/) -->

<svg
   xmlns:dc="http://purl.org/dc/elements/1.1/"
   xmlns:cc="http://creativecommons.org/ns#"
   xmlns:rdf="http://www.w3.org/1999/02/22-rdf-syntax-ns#"
   xmlns:svg="http://www.w3.org/2000/svg"
   xmlns="http://www.w3.org/2000/svg"
   xmlns:sodipodi="http://sodipodi.sourceforge.net/DTD/sodipodi-0.dtd"
   xmlns:inkscape="http://www.inkscape.org/namespaces/inkscape"
   width="206.99254"
   height="166.09019"
   viewBox="0 0 206.99253 166.0902"
   id="svg6502"
   version="1.1"
   inkscape:version="0.91 r13725"
   sodipodi:docname="developper.svg">
  <defs
     id="defs6504" />
  <sodipodi:namedview
     id="base"
     pagecolor="#ffffff"
     bordercolor="#666666"
     borderopacity="1.0"
     inkscape:pageopacity="0.0"
     inkscape:pageshadow="2"
     inkscape:zoom="0.35"
     inkscape:cx="-434.03663"
     inkscape:cy="146.32253"
     inkscape:document-units="px"
     inkscape:current-layer="layer1"
     showgrid="false"
     fit-margin-top="20"
     fit-margin-left="20"
     fit-margin-right="20"
     fit-margin-bottom="20"
     units="px"
     inkscape:window-width="1366"
     inkscape:window-height="705"
     inkscape:window-x="-8"
     inkscape:window-y="-8"
     inkscape:window-maximized="1" />
  <metadata
     id="metadata6507">
    <rdf:RDF>
      <cc:Work
         rdf:about="">
        <dc:format>image/svg+xml</dc:format>
        <dc:type
           rdf:resource="http://purl.org/dc/dcmitype/StillImage" />
        <dc:title></dc:title>
      </cc:Work>
    </rdf:RDF>
  </metadata>
  <g
     inkscape:label="Layer 1"
     inkscape:groupmode="layer"
     id="layer1"
     transform="translate(-420.4652,-512.59453)">
    <path
       inkscape:connector-curvature="0"
       id="path4188-3-7-8-2"
       d="m 494.36667,640.23842 c -2.89691,-1.48186 -3.97126,-4.56547 -2.49805,-7.16997 2.5339,-4.47973 9.80669,-4.47973 12.3406,0 0.89467,1.58171 0.94666,2.23965 0.31644,4.00437 -0.83137,2.3279 -3.7394,4.21953 -6.48674,4.21953 -0.88655,0 -2.53906,-0.47427 -3.67225,-1.05393 z m 27.13381,0.52784 c -2.25869,-0.76561 -4.1188,-3.21329 -4.1188,-5.41985 0,-5.94833 9.6378,-7.82592 12.68188,-2.47062 2.67915,4.71331 -2.86495,9.82194 -8.56308,7.89047 z m 25.09769,-0.49688 c -3.51272,-1.84455 -4.35997,-4.54354 -2.41617,-7.69698 3.1319,-5.08091 12.52997,-2.95196 12.52997,2.83842 0,4.38038 -5.75736,7.14615 -10.1138,4.85856 z"
       style="fill:#19aeff;fill-opacity:1"
       sodipodi:nodetypes="ssssssssssssss" />
    <path
       inkscape:connector-curvature="0"
       id="path4186-6-6-4-2"
       d="m 481.59572,658.00781 c -1.91862,-1.26528 -2.01767,-2.97698 -0.25769,-4.45348 l 1.62264,-1.36127 40.82803,0 c 44.88965,0 43.69399,-0.0874 43.69399,3.19228 0,3.43862 1.85117,3.2986 -43.60995,3.2986 -32.02476,0 -41.48108,-0.15123 -42.27702,-0.67613 z m -40.00219,-19.38076 c -1.06223,-0.51904 -1.12833,-3.60114 -1.12833,-52.61382 0,-39.77182 0.18265,-52.21571 0.77371,-52.71156 1.12387,-0.94285 164.32124,-0.94285 165.44512,0 0.59098,0.4958 0.77371,12.86698 0.77371,52.38416 0,49.43314 -0.0525,51.77489 -1.1791,52.63026 -1.02827,0.78068 -3.15992,0.8952 -16.6638,0.8952 -14.18249,0 -15.57444,-0.0832 -16.55177,-0.98919 -1.43478,-1.33005 -1.34547,-3.10451 0.22245,-4.41989 1.20135,-1.00784 2.14919,-1.08181 13.86232,-1.08181 l 12.57279,0 0,-47.05892 0,-47.05892 -76.08154,0 -76.08154,0 0,47.05892 0,47.05892 12.84837,0 12.84839,0 1.33631,1.42521 c 1.67051,1.78164 1.68028,2.61348 0.0468,3.98386 -1.21831,1.02208 -2.13504,1.08091 -16.60254,1.06536 -9.19648,-0.01 -15.76371,-0.23666 -16.44135,-0.56778 z m 74.8645,-40.20158 c -0.81917,-1.50829 -0.98203,-1.01222 8.23049,-25.06963 l 4.81588,-12.57609 2.23924,0 c 4.72855,0 4.36052,1.58494 -7.03341,30.2908 l -3.3278,8.38406 -2.09083,0.16921 c -1.71127,0.13849 -2.22567,-0.0791 -2.83357,-1.19835 z m -27.4968,-7.82165 c -6.83852,-2.90865 -12.89657,-5.6768 -13.46234,-6.15143 -0.69093,-0.57965 -0.89103,-1.323 -0.60948,-2.26411 0.35479,-1.18593 2.50441,-2.27657 13.99545,-7.10083 13.55763,-5.69188 15.56578,-6.20313 16.21276,-4.1276 0.71094,2.28074 -0.60546,3.11211 -11.70819,7.39434 -6.0716,2.34177 -10.81619,4.42698 -10.54353,4.63379 0.27267,0.20682 5.32807,2.25186 11.23422,4.54452 6.71206,2.60551 10.84623,4.51419 11.02587,5.09048 0.50437,1.61805 -0.65166,3.31758 -2.2396,3.29252 -0.80931,-0.0128 -7.06664,-2.40303 -13.90516,-5.31168 z m 54.14958,4.68581 c -1.00995,-0.84728 -0.99165,-2.859 0.0322,-3.544 0.44327,-0.29655 5.44822,-2.31611 11.1221,-4.48791 5.67387,-2.17179 10.52428,-4.09301 10.77867,-4.26938 0.2544,-0.17635 -4.2428,-2.12291 -9.99376,-4.32566 -5.75097,-2.20275 -10.97778,-4.3765 -11.61515,-4.83054 -1.41491,-1.00795 -1.21492,-3.24765 0.36367,-4.07287 0.9337,-0.48808 3.53363,0.42865 14.41867,5.08407 13.319,5.69639 15.74636,7.19316 14.55692,8.97623 -0.66165,0.99186 -26.23302,12.09509 -27.89027,12.11009 -0.54966,0.005 -1.34754,-0.28303 -1.77308,-0.64003 z"
       style="fill:#dc0000;fill-opacity:1" />
  </g>
</svg>
