<?xml version="1.0" encoding="UTF-8" standalone="no"?> <svg id="Layer_1" data-name="Layer 1" xmlns="http://www.w3.org/2000/svg" viewBox="0 0 128 128"><defs><style>.cls-1{fill:#2b77c0;}.cls-2{fill:#3b4551;}</style></defs><title>a</title><path class="cls-1" d="M76.24732,60.9444a2.74917,2.74917,0,0,0-2.07246-.4942,2.69349,2.69349,0,0,0-1.78778,1.15466c-.66273.9793-2.00414,2.88551-2.51884,3.61656-.911.24824-4.67784.74472-10.91345-5.5l-.52381-.517c-6.12629-6.12629-5.58882-9.88178-5.34513-10.75631.7265-.51014,2.64182-1.85611,3.62339-2.52112A2.68421,2.68421,0,0,0,57.86161,44.137a2.63288,2.63288,0,0,0-.44865-2.011L50.69,31.66118a2.52873,2.52873,0,0,0-3.76-.353c-.04783.04327-4.73706,4.43188-5.48633,5.99192a11.96924,11.96924,0,0,0-.50787,8.88654,47.2111,47.2111,0,0,0,11.558,18.77059l.854.85631a47.213,47.213,0,0,0,18.7797,11.5648,12.58524,12.58524,0,0,0,3.8648.61718A11.59681,11.59681,0,0,0,81.014,76.8682c1.54865-.74017,5.94637-5.43851,5.98965-5.48406a2.52465,2.52465,0,0,0-.353-3.76ZM47.72519,32.16051l-.00043-.00057.00057.00043Z"/><path class="cls-2" d="M112.97389,11.0611H15.02611c-7.454,0-13.99254,6.97577-13.99254,14.92629V84.28964c0,7.44492,6.01584,13.05879,13.99254,13.05879H61.35249l17.986,18.20351a4.66281,4.66281,0,0,0,6.63644,0L103.9621,97.34843h9.0118c7.97784,0,13.99254-5.61387,13.99254-13.05879V25.98739C126.96644,18.03687,120.42793,11.0611,112.97389,11.0611Zm4.66418,73.22854c0,2.75342-2.512,3.73043-4.66418,3.73043H102.01261a4.66309,4.66309,0,0,0-3.31822,1.387L82.65672,105.63829,66.619,89.407a4.66113,4.66113,0,0,0-3.31822-1.387H15.02611c-2.15217,0-4.66418-.977-4.66418-3.73043V25.98739c0-2.77391,2.35373-5.59793,4.66418-5.59793h97.94779c2.30932,0,4.66418,2.824,4.66418,5.59793Z"/></svg>