<?xml version="1.0" encoding="UTF-8" standalone="no" ?>
<!DOCTYPE svg PUBLIC "-//W3C//DTD SVG 1.1//EN" "http://www.w3.org/Graphics/SVG/1.1/DTD/svg11.dtd">
<svg xmlns="http://www.w3.org/2000/svg" xmlns:xlink="http://www.w3.org/1999/xlink" version="1.1" width="350" height="350" viewBox="0 0 350 350" xml:space="preserve">
<desc>Created with Fabric.js 1.7.22</desc>
<defs>
</defs>
<g id="icon" style="stroke: none; stroke-width: 1; stroke-dasharray: none; stroke-linecap: butt; stroke-linejoin: miter; stroke-miterlimit: 10; fill: none; fill-rule: nonzero; opacity: 1;" transform="translate(-1.9444444444444287 -1.9444444444444287) scale(3.89 3.89)" >
	<path d="M 67.72 19.23 c -0.41 0 -0.741 -0.332 -0.741 -0.741 v -2.921 c 0 -0.409 0.332 -0.741 0.741 -0.741 c 1.248 0 2.263 -1.015 2.263 -2.263 c 0 -1.248 -1.015 -2.263 -2.263 -2.263 s -2.263 1.015 -2.263 2.263 c 0 0.409 -0.332 0.741 -0.741 0.741 c -0.41 0 -0.741 -0.332 -0.741 -0.741 c 0 -2.065 1.681 -3.746 3.746 -3.746 s 3.746 1.681 3.746 3.746 c 0 1.812 -1.293 3.327 -3.004 3.672 v 2.253 C 68.461 18.898 68.13 19.23 67.72 19.23 z" style="stroke: none; stroke-width: 1; stroke-dasharray: none; stroke-linecap: butt; stroke-linejoin: miter; stroke-miterlimit: 10; fill: rgb(75,109,170); fill-rule: nonzero; opacity: 1;" transform=" matrix(1 0 0 1 0 0) " stroke-linecap="round" />
	<path d="M 67.72 20.11 c -0.894 0 -1.621 -0.728 -1.621 -1.622 v -2.921 c 0 -0.894 0.727 -1.622 1.621 -1.622 c 0.763 0 1.382 -0.62 1.382 -1.382 c 0 -0.763 -0.62 -1.383 -1.382 -1.383 s -1.382 0.62 -1.382 1.383 c 0 0.894 -0.728 1.622 -1.622 1.622 c -0.894 0 -1.621 -0.728 -1.621 -1.622 c 0 -2.551 2.075 -4.626 4.626 -4.626 s 4.626 2.075 4.626 4.626 c 0 1.946 -1.227 3.666 -3.004 4.332 v 1.593 C 69.342 19.383 68.614 20.11 67.72 20.11 z" style="stroke: none; stroke-width: 1; stroke-dasharray: none; stroke-linecap: butt; stroke-linejoin: miter; stroke-miterlimit: 10; fill: rgb(75,109,170); fill-rule: nonzero; opacity: 1;" transform=" matrix(1 0 0 1 0 0) " stroke-linecap="round" />
	<path d="M 67.72 24.056 c -0.41 0 -0.741 -0.332 -0.741 -0.741 v -0.67 c 0 -0.409 0.332 -0.741 0.741 -0.741 c 0.41 0 0.741 0.332 0.741 0.741 v 0.67 C 68.461 23.724 68.13 24.056 67.72 24.056 z" style="stroke: none; stroke-width: 1; stroke-dasharray: none; stroke-linecap: butt; stroke-linejoin: miter; stroke-miterlimit: 10; fill: rgb(75,109,170); fill-rule: nonzero; opacity: 1;" transform=" matrix(1 0 0 1 0 0) " stroke-linecap="round" />
	<path d="M 67.72 24.937 c -0.894 0 -1.621 -0.728 -1.621 -1.622 v -0.67 c 0 -0.894 0.727 -1.622 1.621 -1.622 s 1.622 0.728 1.622 1.622 v 0.67 C 69.342 24.209 68.614 24.937 67.72 24.937 z" style="stroke: none; stroke-width: 1; stroke-dasharray: none; stroke-linecap: butt; stroke-linejoin: miter; stroke-miterlimit: 10; fill: rgb(75,109,170); fill-rule: nonzero; opacity: 1;" transform=" matrix(1 0 0 1 0 0) " stroke-linecap="round" />
	<path d="M 63.599 26.542 c 0.372 -1.874 -0.019 -3.717 -1.1 -5.192 c -1.08 -1.475 -2.72 -2.404 -4.618 -2.616 c -1.867 -0.211 -3.754 0.306 -5.315 1.449 L 20.782 43.458 l 0.157 -8.239 c 0.035 -1.841 -0.665 -3.545 -1.971 -4.798 c -1.353 -1.298 -3.17 -1.943 -5.123 -1.83 c -3.9 0.236 -7.132 3.527 -7.205 7.336 L 6.074 65.765 c -0.121 5.33 1.429 10.352 4.483 14.521 c 4.676 6.385 12.09 9.714 19.837 9.713 c 5.729 0 11.642 -1.82 16.764 -5.571 l 13.302 -9.742 c 3.258 -2.387 4.104 -6.794 1.886 -9.823 c -1.08 -1.475 -2.72 -2.404 -4.618 -2.615 c -0.012 -0.001 -0.025 -0.001 -0.037 -0.002 l 0.35 -0.256 c 1.56 -1.143 2.621 -2.786 2.985 -4.629 c 0.372 -1.873 -0.019 -3.718 -1.1 -5.192 c -1.08 -1.475 -2.72 -2.404 -4.618 -2.616 c -0.342 -0.038 -0.684 -0.044 -1.025 -0.034 c 0.435 -0.727 0.751 -1.52 0.917 -2.358 c 0.371 -1.874 -0.019 -3.718 -1.1 -5.193 c -1.08 -1.475 -2.72 -2.404 -4.618 -2.616 c -0.012 -0.001 -0.024 -0.001 -0.036 -0.002 l 11.167 -8.178 C 62.174 30.029 63.234 28.384 63.599 26.542 z" style="stroke: none; stroke-width: 1; stroke-dasharray: none; stroke-linecap: butt; stroke-linejoin: miter; stroke-miterlimit: 10; fill: rgb(251,206,157); fill-rule: nonzero; opacity: 1;" transform=" matrix(1 0 0 1 0 0) " stroke-linecap="round" />
	<path d="M 67.631 0 c -8.989 0 -16.302 7.313 -16.302 16.302 c 0 0.2 0.015 0.399 0.022 0.599 c 1.217 -0.743 2.545 -1.24 3.919 -1.471 C 55.72 8.996 61.085 3.897 67.631 3.897 c 6.84 0 12.406 5.565 12.406 12.406 c 0 6.84 -5.565 12.405 -12.406 12.405 c -0.368 0 -0.729 -0.03 -1.091 -0.061 c -0.463 1.331 -1.18 2.558 -2.118 3.623 c 1.048 0.209 2.116 0.335 3.208 0.335 c 8.989 0 16.302 -7.313 16.302 -16.302 C 83.933 7.313 76.62 0 67.631 0 z" style="stroke: none; stroke-width: 1; stroke-dasharray: none; stroke-linecap: butt; stroke-linejoin: miter; stroke-miterlimit: 10; fill: rgb(75,109,170); fill-rule: nonzero; opacity: 1;" transform=" matrix(1 0 0 1 0 0) " stroke-linecap="round" />
</g>
</svg>